<mxfile host="app.diagrams.net" agent="Mozilla/5.0 (Macintosh; Intel Mac OS X 10_15_7) AppleWebKit/537.36 (KHTML, like Gecko) Chrome/131.0.0.0 Safari/537.36" version="24.7.17">
  <diagram name="第 1 页" id="a9bG0fLridITRpA6IxZd">
    <mxGraphModel dx="956" dy="548" grid="1" gridSize="10" guides="1" tooltips="1" connect="1" arrows="1" fold="1" page="1" pageScale="1" pageWidth="827" pageHeight="1169" math="0" shadow="0">
      <root>
        <mxCell id="0" />
        <mxCell id="1" parent="0" />
        <mxCell id="RdudUvoevdp2gIdHSQ6x-1" value="browser" style="shape=umlLifeline;perimeter=lifelinePerimeter;whiteSpace=wrap;html=1;container=1;dropTarget=0;collapsible=0;recursiveResize=0;outlineConnect=0;portConstraint=eastwest;newEdgeStyle={&quot;curved&quot;:0,&quot;rounded&quot;:0};" vertex="1" parent="1">
          <mxGeometry x="70" y="620" width="100" height="300" as="geometry" />
        </mxCell>
        <mxCell id="RdudUvoevdp2gIdHSQ6x-9" value="" style="html=1;points=[[0,0,0,0,5],[0,1,0,0,-5],[1,0,0,0,5],[1,1,0,0,-5]];perimeter=orthogonalPerimeter;outlineConnect=0;targetShapes=umlLifeline;portConstraint=eastwest;newEdgeStyle={&quot;curved&quot;:0,&quot;rounded&quot;:0};" vertex="1" parent="RdudUvoevdp2gIdHSQ6x-1">
          <mxGeometry x="45" y="50" width="10" height="50" as="geometry" />
        </mxCell>
        <mxCell id="RdudUvoevdp2gIdHSQ6x-19" value="" style="html=1;points=[[0,0,0,0,5],[0,1,0,0,-5],[1,0,0,0,5],[1,1,0,0,-5]];perimeter=orthogonalPerimeter;outlineConnect=0;targetShapes=umlLifeline;portConstraint=eastwest;newEdgeStyle={&quot;curved&quot;:0,&quot;rounded&quot;:0};" vertex="1" parent="RdudUvoevdp2gIdHSQ6x-1">
          <mxGeometry x="45" y="180" width="10" height="50" as="geometry" />
        </mxCell>
        <mxCell id="RdudUvoevdp2gIdHSQ6x-2" value="next middleware" style="shape=umlLifeline;perimeter=lifelinePerimeter;whiteSpace=wrap;html=1;container=1;dropTarget=0;collapsible=0;recursiveResize=0;outlineConnect=0;portConstraint=eastwest;newEdgeStyle={&quot;curved&quot;:0,&quot;rounded&quot;:0};" vertex="1" parent="1">
          <mxGeometry x="330" y="620" width="100" height="300" as="geometry" />
        </mxCell>
        <mxCell id="RdudUvoevdp2gIdHSQ6x-10" value="" style="html=1;points=[[0,0,0,0,5],[0,1,0,0,-5],[1,0,0,0,5],[1,1,0,0,-5]];perimeter=orthogonalPerimeter;outlineConnect=0;targetShapes=umlLifeline;portConstraint=eastwest;newEdgeStyle={&quot;curved&quot;:0,&quot;rounded&quot;:0};" vertex="1" parent="RdudUvoevdp2gIdHSQ6x-2">
          <mxGeometry x="45" y="50" width="10" height="180" as="geometry" />
        </mxCell>
        <mxCell id="RdudUvoevdp2gIdHSQ6x-12" value="" style="html=1;align=left;spacingLeft=2;endArrow=block;rounded=0;edgeStyle=orthogonalEdgeStyle;curved=0;rounded=0;" edge="1" target="RdudUvoevdp2gIdHSQ6x-10" parent="RdudUvoevdp2gIdHSQ6x-2">
          <mxGeometry relative="1" as="geometry">
            <mxPoint x="55" y="110" as="sourcePoint" />
            <Array as="points">
              <mxPoint x="55" y="100" />
              <mxPoint x="90" y="100" />
              <mxPoint x="90" y="160" />
            </Array>
            <mxPoint x="55" y="130" as="targetPoint" />
          </mxGeometry>
        </mxCell>
        <mxCell id="RdudUvoevdp2gIdHSQ6x-3" value="app router" style="shape=umlLifeline;perimeter=lifelinePerimeter;whiteSpace=wrap;html=1;container=1;dropTarget=0;collapsible=0;recursiveResize=0;outlineConnect=0;portConstraint=eastwest;newEdgeStyle={&quot;curved&quot;:0,&quot;rounded&quot;:0};" vertex="1" parent="1">
          <mxGeometry x="580" y="620" width="100" height="300" as="geometry" />
        </mxCell>
        <mxCell id="RdudUvoevdp2gIdHSQ6x-15" value="" style="html=1;points=[[0,0,0,0,5],[0,1,0,0,-5],[1,0,0,0,5],[1,1,0,0,-5]];perimeter=orthogonalPerimeter;outlineConnect=0;targetShapes=umlLifeline;portConstraint=eastwest;newEdgeStyle={&quot;curved&quot;:0,&quot;rounded&quot;:0};" vertex="1" parent="RdudUvoevdp2gIdHSQ6x-3">
          <mxGeometry x="45" y="50" width="10" height="180" as="geometry" />
        </mxCell>
        <mxCell id="RdudUvoevdp2gIdHSQ6x-4" value="" style="endArrow=classic;html=1;rounded=0;" edge="1" parent="1" source="RdudUvoevdp2gIdHSQ6x-9" target="RdudUvoevdp2gIdHSQ6x-10">
          <mxGeometry width="50" height="50" relative="1" as="geometry">
            <mxPoint x="120" y="700" as="sourcePoint" />
            <mxPoint x="440" y="910" as="targetPoint" />
            <Array as="points">
              <mxPoint x="250" y="700" />
            </Array>
          </mxGeometry>
        </mxCell>
        <mxCell id="RdudUvoevdp2gIdHSQ6x-5" value="访问地址 /space/xxxx" style="edgeLabel;html=1;align=center;verticalAlign=middle;resizable=0;points=[];" vertex="1" connectable="0" parent="RdudUvoevdp2gIdHSQ6x-4">
          <mxGeometry x="-0.1654" y="-1" relative="1" as="geometry">
            <mxPoint x="13" y="-12" as="offset" />
          </mxGeometry>
        </mxCell>
        <mxCell id="RdudUvoevdp2gIdHSQ6x-13" value="检查Cookies&lt;br&gt;是否有 x-bika-auth" style="text;html=1;align=center;verticalAlign=middle;resizable=0;points=[];autosize=1;strokeColor=none;fillColor=none;" vertex="1" parent="1">
          <mxGeometry x="430" y="730" width="120" height="40" as="geometry" />
        </mxCell>
        <mxCell id="RdudUvoevdp2gIdHSQ6x-14" value="" style="endArrow=classic;html=1;rounded=0;" edge="1" parent="1">
          <mxGeometry width="50" height="50" relative="1" as="geometry">
            <mxPoint x="385" y="815" as="sourcePoint" />
            <mxPoint x="625" y="815" as="targetPoint" />
          </mxGeometry>
        </mxCell>
        <mxCell id="RdudUvoevdp2gIdHSQ6x-17" value="存在 =&amp;gt; /space/xxxx" style="text;html=1;align=center;verticalAlign=middle;resizable=0;points=[];autosize=1;strokeColor=none;fillColor=none;" vertex="1" parent="1">
          <mxGeometry x="430" y="820" width="130" height="30" as="geometry" />
        </mxCell>
        <mxCell id="RdudUvoevdp2gIdHSQ6x-18" value="" style="endArrow=classic;html=1;rounded=0;" edge="1" parent="1">
          <mxGeometry width="50" height="50" relative="1" as="geometry">
            <mxPoint x="375" y="829" as="sourcePoint" />
            <mxPoint x="125" y="829" as="targetPoint" />
          </mxGeometry>
        </mxCell>
        <mxCell id="RdudUvoevdp2gIdHSQ6x-20" value="不存在 =&amp;gt; /auth&amp;nbsp;" style="text;html=1;align=center;verticalAlign=middle;resizable=0;points=[];autosize=1;strokeColor=none;fillColor=none;" vertex="1" parent="1">
          <mxGeometry x="185" y="828" width="110" height="30" as="geometry" />
        </mxCell>
      </root>
    </mxGraphModel>
  </diagram>
</mxfile>
